<svg width="32" height="32" viewBox="0 0 23 23" fill="none" xmlns="http://www.w3.org/2000/svg">
<path d="M11.0204 5.875C11.0204 8.9816 8.5534 11.5 5.5102 11.5H0V5.875C0 2.76839 2.467 0.25 5.5102 0.25C8.5534 0.25 11.0204 2.76839 11.0204 5.875Z" fill="#17CF97"/>
<path d="M11.0204 17.125C11.0204 14.0184 13.4874 11.5 16.5306 11.5H22.0408V17.125C22.0408 20.2316 19.5738 22.75 16.5306 22.75C13.4874 22.75 11.0204 20.2316 11.0204 17.125Z" fill="#17CF97"/>
<path d="M0 17.125C0 20.2316 2.467 22.75 5.5102 22.75H11.0204L11.0204 17.125C11.0204 14.0184 8.5534 11.5 5.5102 11.5C2.467 11.5 0 14.0184 0 17.125Z" fill="#17CF97"/>
<path d="M22.0408 5.875C22.0408 2.76839 19.5738 0.25 16.5306 0.25H11.0204L11.0204 5.875C11.0204 8.9816 13.4874 11.5 16.5306 11.5C19.5738 11.5 22.0408 8.9816 22.0408 5.875Z" fill="#17CF97"/>
</svg>
